<svg xmlns="http://www.w3.org/2000/svg" width="20" height="20" viewBox="0 0 20 20">
  <g id="Group_86" data-name="Group 86" transform="translate(0 1.734)">
    <circle id="Ellipse_39" data-name="Ellipse 39" cx="10" cy="10" r="10" transform="translate(0 -1.734)" fill="#e76f51"/>
    <path id="Path_623" data-name="Path 623" d="M11.938-15.5a2.5,2.5,0,0,1-.191.757,1.976,1.976,0,0,1-.445.643,2.3,2.3,0,0,1-.717.463,3.277,3.277,0,0,1-1.007.228,4.611,4.611,0,0,1-1.106-.036q-.537-.084-1.069-.192t-1.056-.2a4.442,4.442,0,0,0-1.056-.054,3.71,3.71,0,0,0-.877.18,2.419,2.419,0,0,0-.766.415,2.007,2.007,0,0,0-.537.685,2.2,2.2,0,0,0-.2.98,1.818,1.818,0,0,0,.148.751,2.515,2.515,0,0,0,.34.565,1.869,1.869,0,0,0,.364.355q.173.12.222.108a4.091,4.091,0,0,1-1.73.12,2.773,2.773,0,0,1-1.285-.547A2.47,2.47,0,0,1,.2-11.316a2.825,2.825,0,0,1-.173-1.346,3.279,3.279,0,0,1,.4-1.3,3.233,3.233,0,0,1,.852-.98,4.056,4.056,0,0,1,1.229-.631,5.459,5.459,0,0,1,1.532-.252,6.534,6.534,0,0,1,1.489.12q.723.144,1.415.337T8.287-15a6.961,6.961,0,0,0,1.272.222,3.749,3.749,0,0,0,1.217-.1A2.988,2.988,0,0,0,11.938-15.5ZM4.995-11.857q.025-.072.093-.289a2.311,2.311,0,0,0,.093-.463,1.445,1.445,0,0,0-.031-.481.5.5,0,0,0-.266-.343q.247.012.3.012H5.5a2.882,2.882,0,0,1,1.34.325,1.867,1.867,0,0,1,.71.691,1.728,1.728,0,0,1,.222.847,2.367,2.367,0,0,1-.124.793L6.279-6.82q-.025.072-.093.289a2.311,2.311,0,0,0-.093.463,1.445,1.445,0,0,0,.031.481.5.5,0,0,0,.266.343q-.247-.012-.3-.012H5.773a2.882,2.882,0,0,1-1.34-.325,1.867,1.867,0,0,1-.71-.691A1.728,1.728,0,0,1,3.5-7.12a2.367,2.367,0,0,1,.124-.793Z" transform="translate(4.506 19.093)" fill="#fff"/>
  </g>
</svg>
